<svg xmlns="http://www.w3.org/2000/svg" xmlns:xlink="http://www.w3.org/1999/xlink" width="500" zoomAndPan="magnify" viewBox="0 0 375 374.999991" height="500" preserveAspectRatio="xMidYMid meet" version="1.0"><path fill="#1d438a" d="M 324.929688 19.628906 L 324.929688 353.398438 C 324.914062 354.324219 324.835938 355.238281 324.695312 356.152344 C 324.554688 357.0625 324.347656 357.960938 324.082031 358.84375 C 323.8125 359.726562 323.488281 360.585938 323.097656 361.425781 C 322.710938 362.261719 322.265625 363.070312 321.765625 363.84375 C 321.265625 364.617188 320.710938 365.355469 320.109375 366.054688 C 319.503906 366.75 318.855469 367.402344 318.160156 368.011719 C 317.464844 368.617188 316.730469 369.171875 315.957031 369.675781 C 315.183594 370.179688 314.378906 370.628906 313.542969 371.019531 C 312.707031 371.410156 311.847656 371.742188 310.964844 372.015625 C 310.085938 372.285156 309.1875 372.496094 308.277344 372.640625 C 307.367188 372.785156 306.449219 372.867188 305.527344 372.882812 C 304.601562 372.902344 303.683594 372.855469 302.765625 372.742188 C 301.851562 372.632812 300.949219 372.457031 300.054688 372.21875 C 299.164062 371.980469 298.292969 371.683594 297.441406 371.324219 C 296.59375 370.964844 295.773438 370.546875 294.980469 370.070312 C 294.191406 369.597656 293.433594 369.070312 292.71875 368.488281 L 187.496094 280.789062 L 82.269531 368.488281 C 81.554688 369.070312 80.800781 369.597656 80.007812 370.070312 C 79.214844 370.546875 78.394531 370.964844 77.546875 371.324219 C 76.695312 371.683594 75.824219 371.984375 74.933594 372.222656 C 74.042969 372.460938 73.136719 372.632812 72.222656 372.746094 C 71.304688 372.855469 70.386719 372.902344 69.460938 372.886719 C 68.539062 372.871094 67.621094 372.789062 66.710938 372.640625 C 65.800781 372.496094 64.902344 372.289062 64.019531 372.015625 C 63.140625 371.746094 62.28125 371.414062 61.445312 371.023438 C 60.609375 370.632812 59.804688 370.183594 59.03125 369.679688 C 58.257812 369.175781 57.523438 368.621094 56.828125 368.011719 C 56.132812 367.40625 55.484375 366.753906 54.878906 366.054688 C 54.277344 365.355469 53.722656 364.621094 53.222656 363.84375 C 52.722656 363.070312 52.277344 362.261719 51.890625 361.425781 C 51.5 360.589844 51.171875 359.726562 50.90625 358.84375 C 50.640625 357.960938 50.433594 357.0625 50.292969 356.152344 C 50.152344 355.238281 50.074219 354.324219 50.058594 353.398438 L 50.058594 19.628906 C 50.058594 18.988281 50.089844 18.34375 50.152344 17.707031 C 50.214844 17.066406 50.308594 16.429688 50.433594 15.800781 C 50.558594 15.167969 50.714844 14.542969 50.902344 13.929688 C 51.089844 13.3125 51.304688 12.710938 51.550781 12.113281 C 51.796875 11.519531 52.070312 10.941406 52.375 10.371094 C 52.679688 9.804688 53.007812 9.253906 53.363281 8.71875 C 53.722656 8.183594 54.105469 7.667969 54.511719 7.171875 C 54.921875 6.675781 55.351562 6.199219 55.808594 5.742188 C 56.261719 5.289062 56.738281 4.859375 57.234375 4.449219 C 57.730469 4.042969 58.25 3.660156 58.78125 3.300781 C 59.316406 2.945312 59.867188 2.613281 60.4375 2.3125 C 61.003906 2.007812 61.582031 1.734375 62.179688 1.488281 C 62.773438 1.242188 63.378906 1.027344 63.992188 0.839844 C 64.609375 0.652344 65.230469 0.496094 65.863281 0.371094 C 66.492188 0.246094 67.128906 0.152344 67.769531 0.0898438 C 68.410156 0.0273438 69.050781 -0.00390625 69.695312 -0.00390625 L 305.296875 -0.00390625 C 305.9375 -0.00390625 306.582031 0.0273438 307.21875 0.0898438 C 307.859375 0.152344 308.496094 0.246094 309.125 0.371094 C 309.757812 0.496094 310.378906 0.652344 310.996094 0.839844 C 311.613281 1.027344 312.214844 1.242188 312.8125 1.488281 C 313.40625 1.734375 313.984375 2.007812 314.554688 2.3125 C 315.121094 2.613281 315.671875 2.945312 316.207031 3.300781 C 316.742188 3.660156 317.257812 4.042969 317.753906 4.449219 C 318.25 4.859375 318.726562 5.289062 319.183594 5.742188 C 319.636719 6.199219 320.066406 6.675781 320.476562 7.171875 C 320.882812 7.667969 321.265625 8.183594 321.625 8.71875 C 321.980469 9.253906 322.3125 9.804688 322.613281 10.371094 C 322.917969 10.941406 323.191406 11.519531 323.4375 12.113281 C 323.683594 12.710938 323.898438 13.3125 324.085938 13.929688 C 324.273438 14.542969 324.429688 15.167969 324.554688 15.800781 C 324.679688 16.429688 324.773438 17.066406 324.835938 17.707031 C 324.898438 18.34375 324.929688 18.988281 324.929688 19.628906 Z M 324.929688 19.628906 " fill-opacity="1" fill-rule="nonzero"/></svg>