<svg xmlns="http://www.w3.org/2000/svg" xmlns:xlink="http://www.w3.org/1999/xlink" width="500" zoomAndPan="magnify" viewBox="0 0 375 374.999991" height="500" preserveAspectRatio="xMidYMid meet" version="1.0"><defs><clipPath id="626eb788c7"><path d="M 0 15.339844 L 375 15.339844 L 375 359.492188 L 0 359.492188 Z M 0 15.339844 " clip-rule="nonzero"/></clipPath></defs><g clip-path="url(#626eb788c7)"><path fill="#545454" d="M 187.542969 359.710938 L 31.8125 203.890625 C 11.296875 182.949219 0.0195312 155.378906 0.0195312 126.203125 C 0.0195312 65.015625 49.804688 15.234375 110.988281 15.234375 C 138.527344 15.234375 165.96875 27.132812 187.535156 48.183594 C 209.101562 27.140625 236.546875 15.234375 264.082031 15.234375 C 325.265625 15.234375 375.050781 65.015625 375.050781 126.203125 C 375.050781 155.378906 363.78125 182.941406 343.320312 203.828125 L 187.535156 359.707031 Z M 110.996094 32.28125 C 59.207031 32.28125 17.070312 74.421875 17.070312 126.210938 C 17.070312 150.894531 26.609375 174.226562 43.925781 191.898438 L 187.542969 335.585938 L 331.21875 191.835938 C 348.46875 174.21875 358.007812 150.886719 358.007812 126.203125 C 358.007812 74.414062 315.871094 32.277344 264.082031 32.277344 C 238.628906 32.277344 213.050781 44.628906 193.910156 66.171875 L 187.535156 73.351562 L 181.160156 66.171875 C 162.027344 44.628906 136.449219 32.277344 110.988281 32.277344 Z M 110.996094 32.28125 " fill-opacity="1" fill-rule="nonzero"/></g></svg>