<svg xmlns="http://www.w3.org/2000/svg" xmlns:xlink="http://www.w3.org/1999/xlink" width="500" zoomAndPan="magnify" viewBox="0 0 375 374.999991" height="500" preserveAspectRatio="xMidYMid meet" version="1.0"><path fill="#1d438a" d="M 108.921875 350.722656 C 102.402344 355.640625 94.339844 358.597656 85.582031 358.597656 L 38.902344 358.597656 C 17.457031 358.597656 0 341.136719 0 319.695312 L 0 195.214844 C 0 173.773438 17.457031 156.316406 38.902344 156.316406 L 108.921875 156.316406 Z M 108.921875 350.722656 " fill-opacity="1" fill-rule="nonzero"/><path fill="#1d438a" d="M 373.445312 214.664062 C 373.445312 228.15625 365.726562 239.996094 354.226562 245.785156 C 356.625 250.5625 357.882812 255.835938 357.882812 261.347656 C 357.882812 274.851562 350.148438 286.695312 338.652344 292.480469 C 342.214844 299.578125 343.257812 307.746094 341.46875 315.851562 C 337.980469 331.617188 323.152344 343.035156 306.207031 343.035156 L 163.382812 343.035156 C 153.175781 343.035156 137.148438 339.816406 124.480469 333.839844 L 124.480469 167.066406 L 126.347656 166.117188 L 171.160156 69.039062 L 171.160156 16.273438 C 171.160156 13.910156 172.234375 11.667969 174.070312 10.1875 C 174.570312 9.816406 186.113281 0.714844 202.28125 0.714844 C 220.285156 0.714844 248.960938 29.203125 248.960938 62.953125 C 248.960938 84.242188 241.339844 110.738281 236.578125 125.195312 L 332.691406 125.195312 C 353.636719 125.195312 371.453125 140.691406 373.273438 160.46875 C 374.285156 171.5625 370.582031 182.222656 363.3125 190.175781 C 369.742188 196.601562 373.445312 205.3125 373.445312 214.664062 Z M 373.445312 214.664062 " fill-opacity="1" fill-rule="nonzero"/></svg>