<svg xmlns="http://www.w3.org/2000/svg" xmlns:xlink="http://www.w3.org/1999/xlink" width="500" zoomAndPan="magnify" viewBox="0 0 375 365.249998" height="487" preserveAspectRatio="xMidYMid meet" version="1.0"><defs><clipPath id="72cd234906"><path d="M 0.449219 142 L 113.570312 142 L 113.570312 364.347656 L 0.449219 364.347656 Z M 0.449219 142 " clip-rule="nonzero"/></clipPath><clipPath id="4472f278fb"><path d="M 89.09375 0 L 374.53125 0 L 374.53125 364.347656 L 89.09375 364.347656 Z M 89.09375 0 " clip-rule="nonzero"/></clipPath></defs><path fill="#ffffff" d="M 45.0625 352.199219 C 27.171875 352.199219 12.613281 337.660156 12.613281 319.789062 L 12.613281 186.792969 C 12.613281 168.925781 27.171875 154.386719 45.0625 154.386719 L 68.460938 154.386719 C 86.351562 154.386719 100.910156 168.925781 100.910156 186.792969 L 100.910156 319.789062 C 100.910156 337.660156 86.351562 352.199219 68.460938 352.199219 L 45.0625 352.199219 " fill-opacity="1" fill-rule="nonzero"/><g clip-path="url(#72cd234906)"><path fill="#000000" d="M 68.460938 142.234375 L 45.0625 142.234375 C 20.460938 142.234375 0.449219 162.222656 0.449219 186.792969 L 0.449219 319.789062 C 0.449219 344.359375 20.460938 364.347656 45.0625 364.347656 L 68.460938 364.347656 C 93.0625 364.347656 113.074219 344.359375 113.074219 319.789062 L 113.074219 186.792969 C 113.074219 162.222656 93.0625 142.234375 68.460938 142.234375 Z M 68.460938 166.535156 C 79.664062 166.535156 88.746094 175.605469 88.746094 186.792969 L 88.746094 319.789062 C 88.746094 330.976562 79.664062 340.050781 68.460938 340.050781 L 45.0625 340.050781 C 33.859375 340.050781 24.777344 330.976562 24.777344 319.789062 L 24.777344 186.792969 C 24.777344 175.605469 33.859375 166.535156 45.0625 166.535156 L 68.460938 166.535156 " fill-opacity="1" fill-rule="nonzero"/></g><path fill="#ffffff" d="M 135.28125 352.199219 C 116.664062 352.199219 101.519531 337.070312 101.519531 318.476562 L 101.519531 180.144531 C 101.519531 179.960938 101.523438 179.777344 101.53125 179.597656 C 102.140625 166.089844 109.105469 154.886719 120.636719 148.859375 C 125.078125 146.53125 129.386719 144.234375 133.277344 141.679688 C 157.191406 125.972656 175.835938 105.421875 187.246094 82.222656 L 206.019531 31.109375 C 210.21875 19.691406 221.230469 12.015625 233.429688 12.015625 C 240.261719 12.015625 246.921875 14.453125 252.179688 18.878906 C 253.742188 20.195312 255.222656 21.824219 256.703125 23.867188 C 264.535156 34.671875 267.003906 48.484375 263.472656 61.761719 C 262.226562 66.441406 260.792969 71.644531 259.289062 77.101562 C 253.921875 96.613281 247.234375 120.898438 246.105469 132.71875 L 244.839844 145.945312 C 244.832031 146.015625 244.820312 146.136719 244.953125 146.28125 C 245.085938 146.425781 245.207031 146.425781 245.28125 146.425781 L 322.046875 146.425781 C 322.441406 146.425781 322.832031 146.445312 323.210938 146.480469 C 325.253906 146.589844 327.441406 146.953125 329.871094 147.582031 C 342.636719 150.90625 353.058594 159.773438 358.480469 171.90625 C 364.011719 184.300781 363.613281 198.3125 357.386719 210.355469 L 357.144531 210.816406 C 355.382812 214.226562 352.871094 217.335938 349.683594 220.058594 C 345.550781 223.589844 343.851562 228.296875 344.507812 234.429688 C 346.339844 240.367188 351.367188 261.28125 337.753906 278.359375 C 336.140625 280.382812 334.214844 283.65625 334.214844 287.734375 L 334.214844 310.621094 C 334.214844 333.546875 315.539062 352.199219 292.582031 352.199219 L 135.28125 352.199219 " fill-opacity="1" fill-rule="nonzero"/><g clip-path="url(#4472f278fb)"><path fill="#000000" d="M 233.433594 -0.132812 C 216.152344 -0.132812 200.546875 10.742188 194.601562 26.921875 L 176.050781 77.425781 C 165.574219 98.453125 148.496094 117.144531 126.59375 131.53125 C 123.164062 133.78125 119.148438 135.921875 114.992188 138.09375 C 99.527344 146.183594 90.191406 161.109375 89.378906 179.046875 C 89.363281 179.414062 89.351562 179.777344 89.351562 180.144531 L 89.351562 318.476562 C 89.351562 343.773438 109.957031 364.347656 135.28125 364.347656 L 292.582031 364.347656 C 322.246094 364.347656 346.378906 340.246094 346.378906 310.621094 L 346.378906 287.734375 C 346.378906 287.496094 346.5625 286.8125 347.269531 285.925781 C 363.65625 265.375 359.171875 241.410156 356.527344 232.160156 C 356.46875 230.25 357.035156 229.765625 357.59375 229.292969 C 361.980469 225.542969 365.464844 221.203125 367.957031 216.394531 L 368.195312 215.929688 C 376.128906 200.589844 376.636719 182.742188 369.589844 166.957031 C 362.65625 151.433594 349.300781 140.089844 332.945312 135.828125 C 329.804688 135.011719 326.898438 134.527344 324.105469 134.363281 C 323.425781 134.304688 322.738281 134.277344 322.046875 134.277344 L 258.175781 134.277344 L 258.214844 133.875 C 259.246094 123.101562 266.050781 98.375 271.023438 80.320312 C 272.535156 74.824219 273.964844 69.628906 275.226562 64.882812 C 279.707031 48.0625 276.542969 30.515625 266.550781 16.738281 C 264.480469 13.882812 262.34375 11.546875 260.019531 9.589844 C 252.566406 3.320312 243.125 -0.128906 233.433594 -0.132812 Z M 233.429688 24.167969 C 237.234375 24.167969 241.09375 25.441406 244.34375 28.171875 C 245.175781 28.871094 246.019531 29.847656 246.847656 30.992188 C 252.613281 38.941406 254.238281 49.152344 251.714844 58.640625 C 245.78125 80.929688 235.550781 115.308594 233.996094 131.5625 L 232.730469 144.789062 C 232.023438 152.179688 237.84375 158.574219 245.28125 158.574219 L 322.046875 158.574219 L 322.046875 158.597656 C 323.421875 158.609375 325.03125 158.878906 326.804688 159.339844 C 346.417969 164.445312 355.878906 186.796875 346.578125 204.78125 L 346.339844 205.242188 C 345.222656 207.394531 343.628906 209.246094 341.78125 210.824219 C 334.800781 216.78125 330.933594 225.550781 332.585938 237.109375 C 332.585938 237.109375 339.816406 256.269531 328.238281 270.792969 C 324.371094 275.640625 322.046875 281.535156 322.046875 287.734375 L 322.046875 310.621094 C 322.046875 326.871094 308.855469 340.050781 292.582031 340.050781 L 135.28125 340.050781 C 123.351562 340.050781 113.683594 330.394531 113.683594 318.476562 L 113.683594 180.144531 C 114.25 167.683594 121.878906 161.921875 126.28125 159.621094 C 130.933594 157.183594 135.574219 154.714844 139.964844 151.832031 C 164.679688 135.59375 185.539062 113.5625 198.449219 86.992188 L 217.441406 35.292969 C 220.039062 28.226562 226.640625 24.167969 233.429688 24.167969 " fill-opacity="1" fill-rule="nonzero"/></g></svg>