<svg xmlns="http://www.w3.org/2000/svg" xmlns:xlink="http://www.w3.org/1999/xlink" width="500" zoomAndPan="magnify" viewBox="0 0 375 374.999991" height="500" preserveAspectRatio="xMidYMid meet" version="1.0"><path fill="#000000" d="M 87.703125 165.472656 L 132.457031 203.410156 L 118.539062 260.449219 C 115.804688 271.089844 127.546875 279.824219 137.09375 273.824219 L 187.039062 242.980469 L 236.980469 273.816406 C 246.265625 279.546875 257.992188 271.089844 255.535156 260.445312 L 241.613281 203.410156 L 286.371094 165.46875 C 294.828125 158.375 290.464844 144.457031 279.273438 143.636719 L 220.597656 139.269531 L 198.492188 84.960938 C 194.398438 74.863281 179.933594 74.863281 175.566406 84.960938 L 153.460938 139.269531 L 94.785156 143.636719 C 83.609375 144.738281 79.238281 158.382812 87.703125 165.472656 Z M 87.703125 165.472656 " fill-opacity="1" fill-rule="nonzero"/><path fill="#000000" d="M 187.542969 374.890625 C 84.183594 374.890625 0.09375 290.800781 0.09375 187.4375 C 0.09375 84.078125 84.183594 -0.0117188 187.542969 -0.0117188 C 290.90625 -0.0117188 375 84.078125 375 187.4375 C 375 290.800781 290.90625 374.890625 187.542969 374.890625 Z M 187.542969 18.476562 C 94.378906 18.476562 18.582031 94.273438 18.582031 187.4375 C 18.582031 280.605469 94.378906 356.402344 187.542969 356.402344 C 280.710938 356.402344 356.511719 280.605469 356.511719 187.4375 C 356.511719 94.273438 280.710938 18.476562 187.542969 18.476562 Z M 187.542969 18.476562 " fill-opacity="1" fill-rule="nonzero"/></svg>