<svg xmlns="http://www.w3.org/2000/svg" xmlns:xlink="http://www.w3.org/1999/xlink" width="500" zoomAndPan="magnify" viewBox="0 0 375 374.999991" height="500" preserveAspectRatio="xMidYMid meet" version="1.0"><path fill="#000000" d="M 187.5 375 C 84.109375 375 0 290.890625 0 187.5 C 0 84.109375 84.109375 0 187.5 0 C 290.890625 0 375 84.109375 375 187.5 C 375 290.890625 290.890625 375 187.5 375 Z M 187.5 15.625 C 92.734375 15.625 15.625 92.734375 15.625 187.5 C 15.625 282.265625 92.734375 359.375 187.5 359.375 C 282.265625 359.375 359.375 282.265625 359.375 187.5 C 359.375 92.734375 282.265625 15.625 187.5 15.625 Z M 187.5 15.625 " fill-opacity="1" fill-rule="nonzero"/><path fill="#000000" d="M 241.71875 296.921875 C 225.84375 296.921875 209.515625 292.6875 196.46875 288.609375 C 170.8125 280.59375 147.109375 266.234375 127.9375 247.0625 C 102.15625 221.28125 84.5625 186.84375 79.6875 152.59375 C 77.5 137.21875 76.21875 117.546875 85.84375 101.859375 C 94.84375 87.21875 111.109375 78.125 128.3125 78.125 C 131.3125 78.125 134.21875 78.453125 137.015625 78.921875 C 137.15625 78.953125 137.3125 78.96875 137.453125 79.015625 C 147.140625 80.8125 154.8125 89.109375 156.171875 99.28125 L 162.703125 148.109375 C 164.078125 158.421875 158.609375 168.625 149.375 172.921875 C 148.359375 173.390625 147.328125 173.84375 146.265625 174.25 C 151.71875 186.1875 159.203125 196.953125 168.609375 206.359375 C 178.015625 215.765625 188.78125 223.265625 200.734375 228.71875 C 201.125 227.671875 201.578125 226.625 202.03125 225.609375 C 206.34375 216.375 216.5625 210.875 226.875 212.296875 L 275.703125 218.828125 C 285.953125 220.1875 294.3125 228 296.03125 237.8125 C 296.546875 240.734375 296.875 243.65625 296.875 246.671875 C 296.875 262.90625 288.953125 278.15625 275.671875 287.46875 C 265.75 294.4375 253.875 296.921875 241.71875 296.921875 Z M 128.3125 93.75 C 116.515625 93.75 105.328125 99.984375 99.15625 110.03125 C 92.140625 121.46875 93.328125 137.609375 95.15625 150.390625 C 99.5625 181.34375 115.53125 212.5625 138.984375 236 C 156.375 253.390625 177.859375 266.421875 201.125 273.671875 C 232.34375 283.40625 253.796875 283.75 266.703125 274.671875 C 275.671875 268.390625 281.25 257.640625 281.25 246.671875 C 281.25 244.53125 280.984375 242.5 280.65625 240.546875 C 280.09375 237.296875 277.21875 234.765625 273.65625 234.296875 L 224.828125 227.75 C 221.265625 227.359375 217.671875 229.078125 216.25 232.171875 C 215.03125 234.78125 214.15625 237.625 213.625 240.609375 C 213.21875 242.890625 211.828125 244.859375 209.828125 246.03125 C 207.828125 247.171875 205.40625 247.390625 203.25 246.59375 C 186 240.25 170.65625 230.421875 157.625 217.390625 C 144.59375 204.375 134.765625 189.015625 128.421875 171.75 C 127.625 169.578125 127.828125 167.171875 128.984375 165.15625 C 130.140625 163.15625 132.125 161.765625 134.40625 161.375 C 137.375 160.859375 140.21875 159.96875 142.828125 158.75 C 145.921875 157.3125 147.75 153.796875 147.265625 150.171875 L 140.6875 101.34375 C 140.21875 97.765625 137.671875 94.890625 134.515625 94.359375 C 133.984375 94.25 133.453125 94.109375 132.953125 93.90625 C 132.484375 94.03125 130.4375 93.75 128.3125 93.75 Z M 128.3125 93.75 " fill-opacity="1" fill-rule="nonzero"/></svg>