<svg xmlns="http://www.w3.org/2000/svg" xmlns:xlink="http://www.w3.org/1999/xlink" width="500" zoomAndPan="magnify" viewBox="0 0 375 374.999991" height="500" preserveAspectRatio="xMidYMid meet" version="1.0"><defs><clipPath id="3f34a1fbdd"><path d="M 57.953125 0 L 316.703125 0 L 316.703125 375 L 57.953125 375 Z M 57.953125 0 " clip-rule="nonzero"/></clipPath></defs><g clip-path="url(#3f34a1fbdd)"><path fill="#545454" d="M 64.640625 0.0078125 L 309.492188 0.0078125 C 313.773438 0.0078125 317.199219 2.578125 317.199219 6.855469 L 317.199219 367.285156 C 317.199219 370.710938 313.773438 374.136719 309.492188 374.136719 C 308.636719 374.136719 306.925781 374.136719 306.066406 373.28125 L 189.632812 315.0625 L 68.066406 373.28125 C 64.640625 374.992188 60.359375 374.136719 58.648438 369.855469 C 57.792969 369 57.792969 368.144531 57.792969 367.285156 L 57.792969 6.855469 C 57.792969 2.578125 61.214844 0.0078125 64.640625 0.0078125 Z M 302.644531 13.707031 L 72.34375 13.707031 L 72.34375 355.300781 L 186.210938 300.507812 C 188.777344 299.652344 190.492188 299.652344 193.058594 300.507812 L 302.644531 355.300781 Z M 302.644531 13.707031 " fill-opacity="1" fill-rule="nonzero"/></g></svg>