<svg xmlns="http://www.w3.org/2000/svg" xmlns:xlink="http://www.w3.org/1999/xlink" width="500" zoomAndPan="magnify" viewBox="0 0 375 374.999991" height="500" preserveAspectRatio="xMidYMid meet" version="1.0"><path fill="#000000" d="M 187.5 0 C 291.054688 0 375 83.945312 375 187.5 C 375 291.054688 291.054688 375 187.5 375 C 83.945312 375 0 291.054688 0 187.5 C 0 83.945312 83.945312 0 187.5 0 Z M 187.5 25 C 97.753906 25 25 97.753906 25 187.5 C 25 277.246094 97.753906 350 187.5 350 C 277.246094 350 350 277.246094 350 187.5 C 350 97.753906 277.246094 25 187.5 25 Z M 200 137.5 L 200 237.5 L 225 237.5 L 225 262.5 L 150 262.5 L 150 237.5 L 175 237.5 L 175 162.5 L 150 162.5 L 150 137.5 Z M 181.25 87.5 C 191.605469 87.5 200 95.894531 200 106.25 C 200 116.605469 191.605469 125 181.25 125 C 170.894531 125 162.5 116.605469 162.5 106.25 C 162.5 95.894531 170.894531 87.5 181.25 87.5 Z M 181.25 87.5 " fill-opacity="1" fill-rule="nonzero"/></svg>