<svg xmlns="http://www.w3.org/2000/svg" xmlns:xlink="http://www.w3.org/1999/xlink" width="321" zoomAndPan="magnify" viewBox="0 0 240.75 141.750002" height="188" preserveAspectRatio="xMidYMid meet" version="1.0"><defs><clipPath id="af1c6f13d9"><path d="M 36.449219 0 L 219.769531 0 L 219.769531 141.5 L 36.449219 141.5 Z M 36.449219 0 " clip-rule="nonzero"/></clipPath><clipPath id="7ba5a1f5b2"><path d="M 172 124 L 201 124 L 201 141.5 L 172 141.5 Z M 172 124 " clip-rule="nonzero"/></clipPath><clipPath id="a13db0d4e9"><path d="M 202 24 L 219.769531 24 L 219.769531 43 L 202 43 Z M 202 24 " clip-rule="nonzero"/></clipPath><clipPath id="6306b5bb8e"><path d="M 208 41 L 219.769531 41 L 219.769531 61 L 208 61 Z M 208 41 " clip-rule="nonzero"/></clipPath><clipPath id="e5d54cdbcb"><path d="M 190 3 L 219.769531 3 L 219.769531 31 L 190 31 Z M 190 3 " clip-rule="nonzero"/></clipPath><clipPath id="7a716459bc"><path d="M 49 0 L 164 0 L 164 141.5 L 49 141.5 Z M 49 0 " clip-rule="nonzero"/></clipPath><clipPath id="43c5f82c6c"><path d="M 36.449219 72 L 219.769531 72 L 219.769531 136 L 36.449219 136 Z M 36.449219 72 " clip-rule="nonzero"/></clipPath><clipPath id="d05086f987"><path d="M 36.449219 0 L 219.769531 0 L 219.769531 126 L 36.449219 126 Z M 36.449219 0 " clip-rule="nonzero"/></clipPath><clipPath id="9e72c4d9e5"><path d="M 78 127 L 100 127 L 100 141.5 L 78 141.5 Z M 78 127 " clip-rule="nonzero"/></clipPath><clipPath id="4738227f24"><path d="M 59 131 L 79 131 L 79 141.5 L 59 141.5 Z M 59 131 " clip-rule="nonzero"/></clipPath><clipPath id="7d049cca11"><path d="M 36.449219 57 L 75 57 L 75 90 L 36.449219 90 Z M 36.449219 57 " clip-rule="nonzero"/></clipPath><clipPath id="e148890489"><path d="M 103 136 L 121 136 L 121 141.5 L 103 141.5 Z M 103 136 " clip-rule="nonzero"/></clipPath><clipPath id="dc94a73909"><path d="M 36.449219 38 L 50 38 L 50 64 L 36.449219 64 Z M 36.449219 38 " clip-rule="nonzero"/></clipPath><clipPath id="3c389cf408"><path d="M 36.449219 0 L 67 0 L 67 56 L 36.449219 56 Z M 36.449219 0 " clip-rule="nonzero"/></clipPath><clipPath id="145fce6742"><path d="M 36.449219 125 L 60 125 L 60 141.5 L 36.449219 141.5 Z M 36.449219 125 " clip-rule="nonzero"/></clipPath><clipPath id="a71b26a5d8"><path d="M 36.449219 102 L 42 102 L 42 123 L 36.449219 123 Z M 36.449219 102 " clip-rule="nonzero"/></clipPath><clipPath id="aa02e5b304"><path d="M 36.449219 90 L 45 90 L 45 102 L 36.449219 102 Z M 36.449219 90 " clip-rule="nonzero"/></clipPath><clipPath id="c54f085211"><path d="M 36.449219 73 L 49 73 L 49 90 L 36.449219 90 Z M 36.449219 73 " clip-rule="nonzero"/></clipPath><clipPath id="fadc928c1b"><path d="M 194 95 L 219.769531 95 L 219.769531 123 L 194 123 Z M 194 95 " clip-rule="nonzero"/></clipPath><clipPath id="76e11f03c0"><path d="M 196 123 L 219.769531 123 L 219.769531 141.5 L 196 141.5 Z M 196 123 " clip-rule="nonzero"/></clipPath><clipPath id="611081aa6b"><path d="M 118 112 L 159 112 L 159 141.5 L 118 141.5 Z M 118 112 " clip-rule="nonzero"/></clipPath><clipPath id="de0353163d"><path d="M 150 104 L 180 104 L 180 141.5 L 150 141.5 Z M 150 104 " clip-rule="nonzero"/></clipPath><clipPath id="cb3627d7e1"><path d="M 183 58 L 219.769531 58 L 219.769531 90 L 183 90 Z M 183 58 " clip-rule="nonzero"/></clipPath><clipPath id="8b6d9b1976"><path d="M 194 76 L 219.769531 76 L 219.769531 104 L 194 104 Z M 194 76 " clip-rule="nonzero"/></clipPath><clipPath id="985eabe2f8"><path d="M 184 0 L 219.769531 0 L 219.769531 11 L 184 11 Z M 184 0 " clip-rule="nonzero"/></clipPath></defs><g clip-path="url(#af1c6f13d9)"><path fill="#ffffff" d="M 36.398438 0 L 219.675781 0 L 219.675781 141.5 L 36.398438 141.5 Z M 36.398438 0 " fill-opacity="1" fill-rule="nonzero"/></g><g clip-path="url(#7ba5a1f5b2)"><path fill="#aee06b" d="M 200.796875 141.464844 L 187.894531 124.09375 L 172.757812 130.851562 L 181.371094 140.984375 C 181.480469 141.132812 181.554688 141.316406 181.554688 141.5 L 200.796875 141.5 Z M 200.796875 141.464844 " fill-opacity="1" fill-rule="nonzero"/></g><g clip-path="url(#a13db0d4e9)"><path fill="#aee06b" d="M 207.324219 39.917969 L 219.675781 42.269531 L 219.675781 24.863281 L 202.558594 32.023438 Z M 207.324219 39.917969 " fill-opacity="1" fill-rule="nonzero"/></g><path fill="#aee06b" d="M 92.628906 110.101562 L 90.5 95.152344 L 83.390625 90.96875 L 69.242188 90.96875 L 64.953125 107.125 L 79.175781 110.394531 Z M 92.628906 110.101562 " fill-opacity="1" fill-rule="nonzero"/><g clip-path="url(#6306b5bb8e)"><path fill="#aee06b" d="M 219.675781 43.847656 C 219.640625 43.847656 219.601562 43.847656 219.566406 43.847656 L 208.386719 41.71875 L 219.675781 60.375 Z M 219.675781 43.847656 " fill-opacity="1" fill-rule="nonzero"/></g><path fill="#aee06b" d="M 66.273438 10.578125 L 75.582031 23.027344 L 96.769531 10.320312 L 89.402344 0.476562 C 89.292969 0.367188 89.253906 0.21875 89.253906 0.0742188 L 85.078125 0.0742188 Z M 66.273438 10.578125 " fill-opacity="1" fill-rule="nonzero"/><g clip-path="url(#e5d54cdbcb)"><path fill="#aee06b" d="M 190.09375 11.347656 L 201.789062 30.703125 L 219.417969 23.320312 C 219.527344 23.285156 219.601562 23.246094 219.710938 23.246094 L 219.710938 3.636719 L 206.480469 5.214844 Z M 190.09375 11.347656 " fill-opacity="1" fill-rule="nonzero"/></g><g clip-path="url(#7a716459bc)"><path fill="#82c4ff" d="M 53.1875 24.714844 C 55.898438 32.464844 60.113281 39.183594 65.722656 44.765625 C 72.648438 51.671875 81.742188 56.738281 92.664062 59.789062 C 102.816406 62.617188 112.566406 68.636719 121.695312 77.710938 C 129.0625 85.054688 135.992188 94.347656 142.332031 105.398438 C 153.183594 124.3125 158.277344 141.316406 158.351562 141.5 L 163.152344 141.5 C 163.078125 141.316406 161.578125 136.175781 158.828125 129.308594 C 154.28125 117.851562 149.554688 108.777344 146.328125 103.195312 C 139.804688 91.773438 132.582031 82.117188 124.957031 74.476562 C 115.28125 64.820312 104.832031 58.390625 93.910156 55.34375 C 83.792969 52.515625 75.4375 47.890625 69.058594 41.574219 C 63.960938 36.542969 60.113281 30.40625 57.621094 23.355469 C 55.347656 17.039062 54.617188 11.089844 54.394531 7.234375 C 54.140625 3.011719 54.503906 0.0742188 54.503906 0.0351562 L 49.851562 0.0351562 C 49.8125 0.550781 48.53125 11.605469 53.1875 24.714844 Z M 53.1875 24.714844 " fill-opacity="1" fill-rule="nonzero"/></g><g clip-path="url(#43c5f82c6c)"><path fill="#ffffff" d="M 219.675781 72.824219 L 219.675781 76.828125 L 173.78125 103.894531 L 173.636719 103.96875 L 73.164062 135.148438 L 36.398438 125.453125 L 36.398438 122.257812 L 73.089844 131.953125 L 172.535156 101.066406 Z M 219.675781 72.824219 " fill-opacity="1" fill-rule="nonzero"/></g><g clip-path="url(#d05086f987)"><path fill="#ffcd00" d="M 36.398438 67.464844 L 120.777344 17.886719 L 124.664062 31.878906 L 124.664062 53.066406 L 148.671875 92.914062 L 219.675781 125.523438 L 219.675781 122.183594 L 150.800781 90.527344 L 127.742188 52.222656 L 127.742188 31.4375 L 123.492188 16.304688 L 152.230469 0.0742188 L 146.035156 0.0742188 L 122.648438 13.257812 L 118.984375 0.0742188 L 115.832031 0.0742188 L 119.9375 14.800781 L 36.398438 63.9375 Z M 36.398438 67.464844 " fill-opacity="1" fill-rule="nonzero"/></g><path fill="#f2f2f2" d="M 143.617188 23.320312 C 143.578125 23.320312 143.578125 23.320312 143.617188 23.320312 L 127.742188 31.730469 L 127.742188 52.222656 L 130.199219 56.261719 L 160.511719 39.441406 L 148.492188 20.710938 Z M 143.617188 23.320312 " fill-opacity="1" fill-rule="nonzero"/><path fill="#f2f2f2" d="M 124.664062 51.011719 L 124.664062 33.273438 L 106.738281 42.011719 Z M 124.664062 51.011719 " fill-opacity="1" fill-rule="nonzero"/><path fill="#f2f2f2" d="M 110.699219 107.125 L 92.1875 96.183594 L 94.242188 110.503906 L 102.121094 118.402344 C 102.230469 118.511719 102.304688 118.65625 102.339844 118.804688 L 103.074219 122.699219 L 125.289062 115.792969 Z M 110.699219 107.125 " fill-opacity="1" fill-rule="nonzero"/><path fill="#f2f2f2" d="M 149.808594 20.015625 L 161.832031 38.746094 L 176.386719 30.628906 L 165.058594 11.9375 Z M 149.808594 20.015625 " fill-opacity="1" fill-rule="nonzero"/><path fill="#f2f2f2" d="M 117.371094 121.410156 L 98.710938 127.214844 L 100.910156 140.472656 L 119.714844 135.21875 Z M 117.371094 121.410156 " fill-opacity="1" fill-rule="nonzero"/><path fill="#f2f2f2" d="M 200.761719 31.988281 L 194.824219 22.144531 L 177.886719 31.582031 C 177.886719 31.582031 177.851562 31.582031 177.851562 31.621094 C 177.816406 31.621094 177.777344 31.65625 177.777344 31.65625 L 173.050781 34.300781 L 184.484375 52.40625 L 205.78125 40.285156 L 200.835938 32.097656 C 200.796875 32.0625 200.761719 32.0625 200.761719 31.988281 Z M 200.761719 31.988281 " fill-opacity="1" fill-rule="nonzero"/><path fill="#f2f2f2" d="M 38.339844 122.769531 L 57.914062 127.949219 L 63.082031 108.300781 L 42.8125 103.636719 Z M 38.339844 122.769531 " fill-opacity="1" fill-rule="nonzero"/><g clip-path="url(#9e72c4d9e5)"><path fill="#f2f2f2" d="M 78.183594 133.566406 L 79.796875 141.242188 C 79.796875 141.316406 79.835938 141.390625 79.796875 141.464844 L 99.480469 141.464844 L 97.210938 127.65625 Z M 78.183594 133.566406 " fill-opacity="1" fill-rule="nonzero"/></g><path fill="#f2f2f2" d="M 43.179688 102.132812 L 63.484375 106.796875 L 67.664062 90.96875 L 45.78125 90.96875 Z M 43.179688 102.132812 " fill-opacity="1" fill-rule="nonzero"/><path fill="#f2f2f2" d="M 59.382812 128.316406 L 73.089844 131.953125 L 101.570312 123.101562 L 100.875 119.28125 L 93.214844 111.605469 L 79.136719 111.9375 C 79.066406 111.9375 79.027344 111.9375 78.953125 111.898438 L 64.585938 108.59375 Z M 59.382812 128.316406 " fill-opacity="1" fill-rule="nonzero"/><path fill="#f2f2f2" d="M 166.414062 11.238281 L 177.742188 29.894531 L 194.015625 20.859375 L 182.910156 2.460938 Z M 166.414062 11.238281 " fill-opacity="1" fill-rule="nonzero"/><path fill="#f2f2f2" d="M 215.679688 56.703125 L 206.554688 41.609375 L 185.257812 53.726562 L 189.726562 60.78125 C 189.765625 60.816406 189.765625 60.816406 189.800781 60.851562 C 189.800781 60.890625 189.839844 60.890625 189.839844 60.925781 L 195.117188 69.261719 Z M 215.679688 56.703125 " fill-opacity="1" fill-rule="nonzero"/><path fill="#f2f2f2" d="M 97.6875 11.566406 L 76.5 24.273438 L 84.855469 35.4375 L 106.152344 22.917969 Z M 97.6875 11.566406 " fill-opacity="1" fill-rule="nonzero"/><path fill="#f2f2f2" d="M 127.375 30.1875 L 142.148438 22.367188 L 138.375 16.527344 L 130.894531 20.273438 C 130.53125 20.457031 130.125 20.308594 129.90625 19.976562 L 126.605469 14.578125 L 123.527344 16.34375 Z M 127.375 30.1875 " fill-opacity="1" fill-rule="nonzero"/><g clip-path="url(#4738227f24)"><path fill="#f2f2f2" d="M 73.164062 135.148438 L 59.269531 131.472656 L 60.589844 141.316406 C 60.589844 141.355469 60.589844 141.425781 60.589844 141.464844 L 78.296875 141.464844 L 76.71875 134.007812 Z M 73.164062 135.148438 " fill-opacity="1" fill-rule="nonzero"/></g><path fill="#f2f2f2" d="M 69.644531 89.425781 L 83.609375 89.425781 C 83.757812 89.425781 83.867188 89.460938 84.011719 89.535156 L 91.015625 93.683594 L 104.980469 72.640625 C 105.128906 72.421875 105.382812 72.3125 105.605469 72.3125 C 105.75 72.3125 105.898438 72.347656 106.042969 72.421875 C 106.410156 72.640625 106.484375 73.117188 106.261719 73.484375 L 92.371094 94.457031 L 110.992188 105.472656 L 122.941406 92.398438 L 107.398438 83.4375 C 107.03125 83.21875 106.921875 82.777344 107.105469 82.410156 C 107.253906 82.152344 107.507812 82.042969 107.765625 82.042969 C 107.914062 82.042969 108.023438 82.078125 108.132812 82.152344 L 124.480469 91.589844 C 124.664062 91.703125 124.8125 91.921875 124.847656 92.140625 C 124.882812 92.363281 124.8125 92.621094 124.664062 92.765625 L 112.3125 106.316406 L 127.265625 115.167969 L 144.679688 109.769531 C 143.910156 108.339844 143.101562 106.90625 142.257812 105.4375 C 135.917969 94.382812 128.988281 85.054688 121.621094 77.746094 C 112.53125 68.675781 102.78125 62.652344 92.589844 59.824219 C 83.5 57.289062 75.691406 53.359375 69.316406 48.144531 L 54.394531 56.921875 L 75.546875 63.972656 C 75.914062 64.085938 76.132812 64.488281 76.058594 64.894531 Z M 69.644531 89.425781 " fill-opacity="1" fill-rule="nonzero"/><path fill="#f2f2f2" d="M 93.875 55.34375 C 104.796875 58.390625 115.242188 64.820312 124.921875 74.476562 C 132.582031 82.117188 139.765625 91.773438 146.292969 103.195312 C 147.132812 104.664062 148.085938 106.390625 149.148438 108.375 L 168.90625 102.242188 L 148.671875 92.949219 L 128.292969 59.125 L 122.023438 62.617188 C 121.660156 62.835938 121.183594 62.6875 121 62.320312 C 120.777344 61.953125 120.925781 61.476562 121.292969 61.292969 L 127.523438 57.839844 L 124.699219 53.140625 L 124.699219 52.808594 L 104.722656 42.746094 C 104.46875 42.601562 104.285156 42.34375 104.285156 42.050781 C 104.285156 41.757812 104.46875 41.5 104.722656 41.351562 L 124.628906 31.621094 L 120.777344 17.886719 L 73.601562 45.613281 C 79.25 49.871094 86.03125 53.140625 93.875 55.34375 Z M 93.875 55.34375 " fill-opacity="1" fill-rule="nonzero"/><path fill="#f2f2f2" d="M 172.757812 95.59375 C 172.425781 95.777344 171.988281 95.703125 171.765625 95.375 L 160.074219 79.65625 C 159.964844 79.472656 159.890625 79.253906 159.925781 79.070312 C 159.964844 78.847656 160.074219 78.664062 160.257812 78.554688 L 173.195312 70.402344 L 159.964844 50.277344 C 159.855469 50.09375 159.816406 49.871094 159.855469 49.6875 C 159.890625 49.46875 160.035156 49.320312 160.21875 49.210938 L 175.175781 40.652344 L 171.65625 35.035156 L 130.96875 57.585938 L 138.921875 70.769531 L 141.597656 69.261719 L 138.996094 64.488281 C 138.8125 64.121094 138.921875 63.679688 139.253906 63.460938 L 150.875 56.1875 C 150.984375 56.117188 151.128906 56.078125 151.277344 56.078125 C 151.53125 56.078125 151.789062 56.1875 151.9375 56.445312 C 152.15625 56.8125 152.046875 57.289062 151.679688 57.511719 L 140.683594 64.414062 L 143.320312 69.226562 C 143.542969 69.59375 143.394531 70.070312 143.027344 70.253906 L 139.730469 72.089844 L 150.835938 90.527344 L 173.085938 100.773438 L 191.011719 90.011719 L 188.371094 86.488281 Z M 172.757812 95.59375 " fill-opacity="1" fill-rule="nonzero"/><path fill="#f2f2f2" d="M 188.113281 61.035156 L 183.570312 53.875 C 183.535156 53.839844 183.496094 53.765625 183.496094 53.691406 L 176.054688 41.902344 L 161.722656 50.09375 L 174.515625 69.59375 Z M 188.113281 61.035156 " fill-opacity="1" fill-rule="nonzero"/><path fill="#f2f2f2" d="M 192.878906 92.621094 L 176.457031 102.316406 L 192.695312 109.769531 L 201.347656 104.738281 Z M 192.878906 92.621094 " fill-opacity="1" fill-rule="nonzero"/><path fill="#f2f2f2" d="M 182.214844 76.863281 L 193.832031 70.070312 L 188.921875 62.359375 L 161.796875 79.472656 L 172.574219 93.980469 L 187.417969 85.273438 L 181.957031 78.003906 C 181.808594 77.820312 181.773438 77.597656 181.808594 77.378906 C 181.882812 77.160156 182.03125 76.976562 182.214844 76.863281 Z M 182.214844 76.863281 " fill-opacity="1" fill-rule="nonzero"/><path fill="#f2f2f2" d="M 163.484375 119.90625 L 171.730469 129.636719 L 186.941406 122.84375 L 179.316406 112.5625 Z M 163.484375 119.90625 " fill-opacity="1" fill-rule="nonzero"/><g clip-path="url(#7d049cca11)"><path fill="#f2f2f2" d="M 48.859375 71.503906 C 48.898438 71.503906 48.933594 71.464844 48.933594 71.464844 C 48.972656 71.464844 49.007812 71.429688 49.007812 71.429688 C 49.042969 71.429688 49.082031 71.429688 49.082031 71.394531 C 49.082031 71.394531 49.082031 71.394531 49.117188 71.394531 C 49.152344 71.394531 49.191406 71.394531 49.226562 71.394531 C 49.265625 71.394531 49.300781 71.394531 49.300781 71.394531 L 49.410156 71.394531 C 49.445312 71.394531 49.445312 71.394531 49.484375 71.394531 C 49.484375 71.394531 49.484375 71.394531 49.519531 71.394531 C 49.558594 71.394531 49.558594 71.394531 49.59375 71.429688 C 49.59375 71.429688 49.59375 71.429688 49.628906 71.429688 C 49.667969 71.429688 49.667969 71.464844 49.703125 71.464844 C 49.742188 71.464844 49.742188 71.503906 49.777344 71.539062 C 49.777344 71.539062 49.777344 71.539062 49.8125 71.578125 L 49.851562 71.613281 C 49.851562 71.613281 49.851562 71.613281 49.851562 71.648438 C 49.886719 71.6875 49.886719 71.6875 49.886719 71.722656 C 49.886719 71.761719 49.921875 71.761719 49.921875 71.796875 L 49.921875 72.238281 C 49.921875 72.273438 49.921875 72.273438 49.921875 72.3125 L 46.074219 89.425781 L 67.996094 89.425781 L 74.410156 65.148438 L 52.671875 57.878906 L 36.398438 67.464844 L 36.398438 79.363281 L 48.859375 71.503906 C 48.824219 71.503906 48.824219 71.503906 48.859375 71.503906 Z M 48.859375 71.503906 " fill-opacity="1" fill-rule="nonzero"/></g><g clip-path="url(#e148890489)"><path fill="#f2f2f2" d="M 119.972656 136.761719 L 103 141.5 L 120.851562 141.5 C 120.816406 141.425781 120.777344 141.355469 120.742188 141.242188 Z M 119.972656 136.761719 " fill-opacity="1" fill-rule="nonzero"/></g><g clip-path="url(#dc94a73909)"><path fill="#f2f2f2" d="M 36.398438 38.632812 L 36.398438 63.9375 L 49.152344 56.445312 Z M 36.398438 38.632812 " fill-opacity="1" fill-rule="nonzero"/></g><path fill="#f2f2f2" d="M 119.9375 14.800781 L 115.832031 0.0742188 L 91.015625 0.0742188 L 107.507812 22.144531 Z M 119.9375 14.800781 " fill-opacity="1" fill-rule="nonzero"/><path fill="#f2f2f2" d="M 57.546875 23.355469 C 60.078125 30.40625 63.925781 36.542969 68.984375 41.574219 C 69.644531 42.234375 70.378906 42.894531 71.074219 43.519531 L 83.5 36.210938 L 64.550781 10.796875 C 64.402344 10.613281 64.367188 10.394531 64.402344 10.171875 C 64.4375 9.953125 64.585938 9.769531 64.769531 9.660156 L 81.960938 0.0742188 L 54.433594 0.0742188 C 54.433594 0.109375 54.066406 3.046875 54.324219 7.273438 C 54.542969 11.089844 55.3125 17.039062 57.546875 23.355469 Z M 57.546875 23.355469 " fill-opacity="1" fill-rule="nonzero"/><g clip-path="url(#3c389cf408)"><path fill="#f2f2f2" d="M 51.5 36.429688 C 51.648438 36.359375 51.757812 36.320312 51.902344 36.320312 C 52.160156 36.320312 52.417969 36.429688 52.5625 36.652344 C 52.78125 37.019531 52.710938 37.496094 52.34375 37.714844 L 42.300781 44.253906 L 50.363281 55.492188 L 50.65625 55.601562 L 66.96875 46.015625 C 66.527344 45.613281 66.125 45.207031 65.722656 44.804688 C 60.152344 39.257812 55.933594 32.5 53.1875 24.753906 C 48.566406 11.640625 49.8125 0.550781 49.886719 0.0742188 L 36.398438 0.0742188 L 36.398438 36.027344 L 41.382812 43.003906 Z M 51.5 36.429688 " fill-opacity="1" fill-rule="nonzero"/></g><g clip-path="url(#145fce6742)"><path fill="#f2f2f2" d="M 59.050781 141.464844 L 57.65625 131.070312 L 36.398438 125.453125 L 36.398438 141.464844 Z M 59.050781 141.464844 " fill-opacity="1" fill-rule="nonzero"/></g><g clip-path="url(#a71b26a5d8)"><path fill="#f2f2f2" d="M 41.308594 103.269531 L 36.398438 102.132812 L 36.398438 122.257812 L 36.875 122.367188 Z M 41.308594 103.269531 " fill-opacity="1" fill-rule="nonzero"/></g><g clip-path="url(#aa02e5b304)"><path fill="#f2f2f2" d="M 36.617188 100.625 L 41.675781 101.800781 L 44.207031 90.96875 L 36.398438 90.96875 L 36.398438 100.625 L 36.433594 100.625 C 36.507812 100.589844 36.542969 100.625 36.617188 100.625 Z M 36.617188 100.625 " fill-opacity="1" fill-rule="nonzero"/></g><g clip-path="url(#c54f085211)"><path fill="#aee06b" d="M 44.570312 89.425781 L 48.089844 73.78125 L 36.800781 80.90625 C 36.691406 80.976562 36.542969 81.015625 36.398438 81.015625 L 36.398438 89.386719 L 44.570312 89.386719 Z M 44.570312 89.425781 " fill-opacity="1" fill-rule="nonzero"/></g><path fill="#f2f2f2" d="M 146.035156 0.0742188 L 118.984375 0.0742188 L 122.648438 13.257812 Z M 146.035156 0.0742188 " fill-opacity="1" fill-rule="nonzero"/><g clip-path="url(#fadc928c1b)"><path fill="#f2f2f2" d="M 219.675781 122.183594 L 219.675781 95.816406 L 194.421875 110.578125 Z M 219.675781 122.183594 " fill-opacity="1" fill-rule="nonzero"/></g><path fill="#f2f2f2" d="M 175.945312 105.4375 L 195.117188 131.289062 L 212.785156 122.367188 Z M 175.945312 105.4375 " fill-opacity="1" fill-rule="nonzero"/><g clip-path="url(#76e11f03c0)"><path fill="#f2f2f2" d="M 196.070312 132.539062 L 202.082031 140.617188 C 202.265625 140.875 202.265625 141.207031 202.117188 141.464844 L 219.675781 141.464844 L 219.675781 125.523438 L 214.542969 123.175781 Z M 196.070312 132.539062 " fill-opacity="1" fill-rule="nonzero"/></g><g clip-path="url(#611081aa6b)"><path fill="#f2f2f2" d="M 118.835938 120.972656 L 121.21875 134.816406 L 139.875 129.636719 C 140.28125 129.527344 140.71875 129.75 140.828125 130.1875 C 140.941406 130.59375 140.71875 131.035156 140.28125 131.144531 L 121.476562 136.359375 L 122.28125 140.984375 C 122.320312 141.171875 122.28125 141.355469 122.171875 141.5 L 158.277344 141.5 C 158.242188 141.355469 154.320312 128.390625 146.144531 112.523438 Z M 118.835938 120.972656 " fill-opacity="1" fill-rule="nonzero"/></g><g clip-path="url(#de0353163d)"><path fill="#f2f2f2" d="M 170.921875 131.070312 L 161.648438 120.164062 C 161.503906 119.980469 161.429688 119.722656 161.503906 119.503906 C 161.539062 119.28125 161.722656 119.0625 161.941406 118.988281 L 178.402344 111.347656 L 173.050781 104.152344 L 150.578125 111.128906 C 153.109375 116.125 156.003906 122.257812 158.789062 129.308594 C 161.503906 136.175781 163.042969 141.316406 163.117188 141.5 L 179.792969 141.5 Z M 170.921875 131.070312 " fill-opacity="1" fill-rule="nonzero"/></g><g clip-path="url(#cb3627d7e1)"><path fill="#f2f2f2" d="M 195.300781 70.953125 L 183.714844 77.746094 L 192.332031 89.242188 L 219.675781 72.863281 L 219.675781 63.351562 L 216.488281 58.023438 Z M 195.300781 70.953125 " fill-opacity="1" fill-rule="nonzero"/></g><g clip-path="url(#8b6d9b1976)"><path fill="#f2f2f2" d="M 202.667969 103.96875 L 219.308594 94.273438 C 219.417969 94.199219 219.566406 94.164062 219.675781 94.164062 L 219.675781 76.828125 L 194.199219 91.847656 Z M 202.667969 103.96875 " fill-opacity="1" fill-rule="nonzero"/></g><g clip-path="url(#985eabe2f8)"><path fill="#aee06b" d="M 206.003906 3.746094 C 206.078125 3.710938 206.113281 3.710938 206.1875 3.710938 L 219.640625 2.09375 L 219.675781 2.09375 L 219.675781 0.0742188 L 187.492188 0.0742188 L 184.304688 1.761719 L 189.289062 10.027344 Z M 206.003906 3.746094 " fill-opacity="1" fill-rule="nonzero"/></g><path fill="#f2f2f2" d="M 184.191406 0.0742188 L 159.488281 0.0742188 L 165.570312 9.914062 Z M 184.191406 0.0742188 " fill-opacity="1" fill-rule="nonzero"/><path fill="#f2f2f2" d="M 130.859375 18.546875 L 138.335938 14.800781 C 138.703125 14.617188 139.105469 14.726562 139.328125 15.058594 L 143.542969 21.59375 L 164.253906 10.613281 L 157.726562 0.0351562 C 157.726562 0.0351562 157.726562 0.0351562 157.726562 0 L 152.230469 0 L 127.925781 13.734375 Z M 130.859375 18.546875 " fill-opacity="1" fill-rule="nonzero"/></svg>