<svg xmlns="http://www.w3.org/2000/svg" xmlns:xlink="http://www.w3.org/1999/xlink" width="500" zoomAndPan="magnify" viewBox="0 0 375 374.999991" height="500" preserveAspectRatio="xMidYMid meet" version="1.0"><defs><clipPath id="59f6f62aab"><path d="M 0 8.183594 L 375 8.183594 L 375 366.566406 L 0 366.566406 Z M 0 8.183594 " clip-rule="nonzero"/></clipPath></defs><g clip-path="url(#59f6f62aab)"><path fill="#000000" d="M 374.335938 128.980469 L 345.90625 34.011719 C 341.34375 18.765625 327.574219 8.523438 311.648438 8.523438 L 63.355469 8.523438 C 47.429688 8.523438 33.65625 18.765625 29.097656 34.011719 L 0.664062 128.980469 C 0.0507812 131.019531 -0.0234375 133.1875 0.445312 135.265625 C 4.011719 151.113281 12.585938 165.59375 24.730469 176.453125 L 24.730469 312.167969 C 24.730469 341.90625 48.953125 366.105469 78.726562 366.105469 L 142.589844 366.105469 C 149.457031 366.105469 155.027344 360.542969 155.027344 353.679688 L 155.027344 246.304688 C 155.027344 245.753906 155.527344 245.253906 156.078125 245.253906 L 218.921875 245.253906 C 219.472656 245.253906 219.972656 245.753906 219.972656 246.304688 L 219.972656 353.679688 C 219.972656 360.542969 225.542969 366.105469 232.410156 366.105469 L 296.273438 366.105469 C 326.046875 366.105469 350.269531 341.90625 350.269531 312.167969 L 350.269531 176.453125 C 362.414062 165.597656 370.984375 151.113281 374.554688 135.265625 C 375.023438 133.1875 374.949219 131.019531 374.335938 128.980469 Z M 52.929688 41.132812 C 54.363281 36.347656 58.359375 33.375 63.355469 33.375 L 311.644531 33.375 C 316.640625 33.375 320.636719 36.347656 322.070312 41.132812 L 349.511719 132.804688 C 343 155.417969 321.824219 171.523438 298.019531 171.523438 C 279.886719 171.523438 263.117188 162.453125 253.164062 147.269531 C 250.867188 143.765625 246.953125 141.648438 242.757812 141.648438 C 238.5625 141.648438 234.648438 143.765625 232.351562 147.269531 C 222.398438 162.453125 205.632812 171.523438 187.496094 171.523438 C 169.359375 171.523438 152.59375 162.453125 142.640625 147.269531 C 140.34375 143.765625 136.429688 141.648438 132.234375 141.648438 C 128.039062 141.648438 124.125 143.765625 121.828125 147.269531 C 111.875 162.453125 95.105469 171.523438 76.972656 171.523438 C 53.167969 171.523438 31.992188 155.414062 25.480469 132.804688 Z M 296.273438 341.253906 L 244.851562 341.253906 L 244.851562 246.304688 C 244.851562 232.019531 233.21875 220.402344 218.921875 220.402344 L 156.078125 220.402344 C 141.78125 220.402344 130.148438 232.019531 130.148438 246.304688 L 130.148438 341.253906 L 78.726562 341.253906 C 62.671875 341.253906 49.609375 328.207031 49.609375 312.167969 L 49.609375 191.421875 C 58.316406 194.660156 67.589844 196.375 76.976562 196.375 C 97.960938 196.375 117.695312 188.089844 132.238281 173.640625 C 146.78125 188.089844 166.511719 196.375 187.5 196.375 C 208.488281 196.375 228.21875 188.089844 242.761719 173.640625 C 257.304688 188.089844 277.039062 196.375 298.023438 196.375 C 307.410156 196.375 316.6875 194.660156 325.390625 191.421875 L 325.390625 312.167969 C 325.390625 328.207031 312.328125 341.253906 296.273438 341.253906 Z M 296.273438 341.253906 " fill-opacity="1" fill-rule="nonzero"/></g></svg>