<svg xmlns="http://www.w3.org/2000/svg" xmlns:xlink="http://www.w3.org/1999/xlink" width="500" zoomAndPan="magnify" viewBox="0 0 375 374.999991" height="500" preserveAspectRatio="xMidYMid meet" version="1.0"><path fill="#2e2d2d" d="M 249.375 94.90625 C 246.28125 73.507812 241.855469 53.730469 236.265625 36.433594 C 267.570312 51.296875 292.953125 76.699219 307.804688 108.03125 C 290.527344 102.429688 270.757812 98.003906 249.375 94.90625 Z M 172.160156 89.558594 C 153.507812 89.558594 135.226562 90.441406 117.75 92.152344 C 120.75 73.347656 124.832031 56.042969 129.894531 40.941406 C 131.660156 35.671875 133.46875 30.910156 135.289062 26.617188 C 147.09375 23.621094 159.4375 22.035156 172.160156 22.035156 C 184.878906 22.035156 197.234375 23.621094 209.03125 26.617188 C 210.855469 30.910156 212.660156 35.671875 214.425781 40.941406 C 219.488281 56.042969 223.578125 73.347656 226.570312 92.152344 C 209.097656 90.441406 190.820312 89.558594 172.160156 89.558594 Z M 94.945312 94.90625 C 73.5625 98.003906 53.796875 102.429688 36.523438 108.03125 C 51.371094 76.699219 76.75 51.296875 108.0625 36.433594 C 102.460938 53.730469 98.039062 73.507812 94.945312 94.90625 Z M 36.523438 236.324219 C 53.796875 241.917969 73.5625 246.34375 94.945312 249.441406 C 98.039062 270.839844 102.460938 290.625 108.0625 307.914062 C 76.75 293.050781 51.371094 267.648438 36.523438 236.324219 Z M 22.121094 172.171875 C 22.121094 159.445312 23.707031 147.089844 26.710938 135.277344 C 30.992188 133.449219 35.75 131.644531 41.015625 129.878906 C 56.105469 124.8125 73.398438 120.730469 92.191406 117.726562 C 90.480469 135.214844 89.601562 153.507812 89.601562 172.171875 C 89.601562 190.847656 90.480469 209.140625 92.191406 226.621094 C 73.398438 223.625 56.105469 219.542969 41.015625 214.46875 C 35.75 212.703125 30.992188 210.898438 26.710938 209.070312 C 23.707031 197.265625 22.121094 184.902344 22.121094 172.171875 Z M 342.964844 150.226562 C 341.644531 139.738281 339.371094 129.464844 336.183594 119.507812 C 327.949219 93.699219 313.613281 70.046875 293.910156 50.339844 C 274.214844 30.625 250.578125 16.277344 224.789062 8.035156 C 214.835938 4.847656 204.574219 2.574219 194.09375 1.25 C 186.878906 0.339844 179.554688 -0.125 172.160156 -0.125 C 164.765625 -0.125 157.449219 0.339844 150.226562 1.25 C 139.746094 2.574219 129.480469 4.847656 119.539062 8.035156 C 93.746094 16.277344 70.101562 30.625 50.40625 50.339844 C 30.707031 70.046875 16.367188 93.699219 8.132812 119.507812 C 4.945312 129.464844 2.675781 139.738281 1.355469 150.226562 C 0.445312 157.453125 -0.0234375 164.78125 -0.0234375 172.171875 C -0.0234375 179.574219 0.445312 186.902344 1.355469 194.121094 C 2.675781 204.609375 4.945312 214.878906 8.132812 224.839844 C 16.367188 250.648438 30.707031 274.300781 50.40625 294.007812 C 70.101562 313.722656 93.746094 328.070312 119.539062 336.320312 C 129.480469 339.5 139.746094 341.773438 150.226562 343.09375 C 157.449219 344.007812 164.765625 344.480469 172.160156 344.480469 C 179.554688 344.480469 186.878906 344.007812 194.09375 343.09375 C 201.347656 342.183594 208.492188 340.816406 215.507812 339.003906 L 215.4375 338.769531 L 209.292969 317.09375 C 209.207031 317.3125 209.113281 317.519531 209.03125 317.730469 C 197.234375 320.726562 184.878906 322.3125 172.160156 322.3125 C 159.4375 322.3125 147.09375 320.726562 135.289062 317.730469 C 133.46875 313.4375 131.660156 308.683594 129.894531 303.414062 C 124.832031 288.304688 120.75 271 117.75 252.203125 C 135.226562 253.90625 153.507812 254.792969 172.160156 254.792969 C 178.683594 254.792969 185.167969 254.679688 191.574219 254.46875 L 185.347656 232.472656 C 180.984375 232.574219 176.582031 232.628906 172.160156 232.628906 C 152.339844 232.628906 133.027344 231.601562 114.746094 229.625 C 112.773438 211.339844 111.746094 192.015625 111.746094 172.171875 C 111.746094 152.339844 112.773438 133.015625 114.746094 114.722656 C 133.027344 112.746094 152.339844 111.71875 172.160156 111.71875 C 191.984375 111.71875 211.292969 112.746094 229.578125 114.722656 C 231.546875 133.015625 232.574219 152.339844 232.574219 172.171875 C 232.574219 176.5 232.527344 180.800781 232.425781 185.074219 L 254.40625 191.304688 C 254.617188 184.988281 254.714844 178.601562 254.714844 172.171875 C 254.714844 153.507812 253.835938 135.214844 252.136719 117.726562 C 270.917969 120.730469 288.210938 124.8125 303.3125 129.878906 C 308.566406 131.644531 313.324219 133.449219 317.617188 135.277344 C 320.609375 147.089844 322.195312 159.445312 322.195312 172.171875 C 322.195312 184.902344 320.609375 197.265625 317.617188 209.070312 L 317.390625 209.164062 L 338.945312 215.269531 C 340.71875 208.34375 342.0625 201.28125 342.964844 194.121094 C 343.882812 186.902344 344.347656 179.574219 344.347656 172.171875 C 344.347656 164.78125 343.882812 157.453125 342.964844 150.226562 " fill-opacity="1" fill-rule="nonzero"/><path fill="#2e2d2d" d="M 375.023438 354.59375 C 375.023438 359.816406 373.046875 365.035156 369.066406 368.996094 C 361.128906 376.949219 348.242188 376.949219 340.296875 368.996094 L 271.214844 299.867188 L 253.402344 332.832031 C 248.535156 341.867188 235.300781 340.863281 231.828125 331.246094 C 231.8125 331.207031 231.796875 331.167969 231.78125 331.128906 L 198.59375 213.894531 C 195.207031 204.269531 204.464844 195.007812 214.082031 198.402344 L 331.222656 231.609375 C 340.933594 235.023438 341.976562 248.34375 332.925781 253.246094 L 299.992188 271.0625 L 369.066406 340.210938 C 373.046875 344.199219 375.023438 349.390625 375.023438 354.59375 " fill-opacity="1" fill-rule="nonzero"/></svg>